<svg id="Layer_1" data-name="Layer 1" xmlns="http://www.w3.org/2000/svg" viewBox="0 0 1920 1180.8">
  <defs>
    <style>.cls-1{fill:#bde;}.cls-2{fill:#a2bb3d;}.cls-3{fill:#91b4c7;}.cls-4{fill:#87a6bb;}.cls-5{fill:#d9ecf8;}.cls-6{fill:#fafcfd;}.cls-7{fill:#fefefe;}.cls-8{fill:#e6c549;}.cls-9{fill:#fdfbf3;}.cls-10{fill:#bae92c;}.cls-11{fill:#6bb253;}.cls-12{fill:#d2d6ce;}.cls-13{fill:#d1d4cc;}.cls-14{fill:#d1d5cc;}.cls-15{fill:#834b13;}.cls-16{fill:#834c14;}.cls-17{fill:#5e9b51;}.cls-18{fill:#324b27;}.cls-19{fill:#243d3c;}.cls-20{fill:#5e9a51;}.cls-21{fill:#5e9b50;}.cls-22{fill:#5e9a4f;}.cls-23{fill:#5b4a2a;}.cls-24{fill:#a2bb41;}.cls-25{fill:#887251;}.cls-26{fill:#826f4f;}.cls-27{fill:#86764f;}.cls-28{fill:#88764f;}.cls-29{fill:#82a0b4;}.cls-30{fill:#5e9c50;}.cls-31{fill:#334c27;}.cls-32{fill:#877052;}.cls-33{fill:#5e9b4f;}.cls-34{fill:#344d27;}.cls-35{fill:#897450;}.cls-36{fill:#897a4e;}.cls-37{fill:#617039;}.cls-38{fill:#253f3d;}.cls-39{fill:#2e4745;}.cls-40{fill:#2e4645;}.cls-41{fill:#3f4436;}.cls-42{fill:#926b41;}.cls-43{fill:#394236;}.cls-44{fill:#834d17;}.cls-45{fill:#334036;}.cls-46{fill:#2a3d38;}</style>
  </defs>
  <title>wallpaper</title>
  <rect class="cls-1" width="1918" height="216.88"/>
  <path class="cls-1" d="M.24,1042.65Q.24,532,0,21.26c0-8.08,2.24-8.84,9.36-8.84q949.77.28,1899.54,0c7.13,0,9.36.77,9.35,8.84q-.41,510.69-.24,1021.39c-1.94,1.11-3.61.31-5.27-.69-5.92-5.27-9.67-12.19-13.86-18.72-43.31-67.38-87.17-134.41-130.79-201.59-64-98.56-128.32-196.92-192.05-295.65-5.58-8.64-11.75-16.89-17-25.73a41.41,41.41,0,0,0-6-12.59c-28.05-42.71-56.16-85.4-83.78-128.4-5.47-8.52-6.25-8.43-11.73,0-27,41.56-53.6,83.34-80.61,124.87q-105.41,162.29-210.75,324.61c-2.83,4.35-4.93,9.52-10.3,11.71-5.25-.3-7.12-4.69-9.41-8.22-33.56-51.84-67.34-103.54-100.87-155.4-10.5-16.23-21.63-32.07-31.06-49-24-39.3-50.13-77.24-75.21-115.85-2.82-4.34-5.1-5-8.06-.24-21.64,34.9-45.16,68.61-66,104.05-40.16,59.65-78.51,120.49-118,180.6-13.66,20.82-26.93,41.9-40.83,62.56-2.35,3.5-4.31,7.85-9.72,7.62C686.8,837.82,681,825.88,674,815c-35.53-55-71.46-109.81-107.07-164.8q-27.47-42.42-55.11-84.73a83.41,83.41,0,0,0-13.58-16.56c.12-4.35-.39-8.29-3-12.23-25.91-38.58-50.83-77.8-76.53-116.52-1.35-2-2.48-4.32-5.7-6.21-25.85,40.21-52.25,79.84-77.17,120.43-19.94,32.4-41.21,64-61.93,95.86Q152.33,817.36,30.66,1004.41c-8.13,12.56-16.09,25.24-25.27,37.11C3.86,1042.75,2.27,1043.72.24,1042.65Z" transform="translate(0 99.88)"/>
  <path class="cls-2" d="M1916,1030.18l3.9,1.8c0,14.67-.19,29.35.12,44,.09,4-.78,5.52-4.81,4.72a19.55,19.55,0,0,0-3.74,0q-950.46,0-1900.92.17c-7,0-9-1.54-8.62-8.61.65-13.39.19-26.83.19-40.26l3.65-2a7.91,7.91,0,0,1,4.45-1.76c10.86,2.34,21.73,0,32.6.05q246.59.07,493.18,0c12.88,0,12.77.05,6.34-11.41-19.68-35.09-38.51-70.68-61.44-103.84-30.57-44.21-65.69-84-111.18-113.58-23.15-15.07-47.81-26.84-74.52-34.23-5.6-1.55-11.79-2-16.26-6.51-1.78-3.34-.34-6.22,1.85-8.5a107.86,107.86,0,0,1,29-21.89,5.82,5.82,0,0,1,5.42-.08c3.67,5,.31,9.44-1.5,13.83s-2.61,7.71,3.89,8a10.25,10.25,0,0,1,8,4.07c2.1,3.81,4.23,7.84,8.07,1.44,3-5,9.73-1.61,12.81-6.07.24-7.95-5.22-13.78-7.47-20.76-1.45-4.53-4.94-9-.61-13.87,20.91-9.68,42.25-9.77,63.91-3,3.22,4.68-.53,7.35-3.09,10.29-2.4,2.75-6.08,4.34-8.09,10.06,22.09,0,43.4,1.65,64.77-1.14,5.79-1,10.15,2.26,14.6,5,19.84,12.45,38.33,26.59,54.61,43.54,8,8.31,16.29,16.28,24.38,24.48,3.06,3.1,6.24,6.13,7.56,10.5a11.46,11.46,0,0,1,.57,4.6c-2.16,16.38,3.59,28.54,18.75,35.89a9.86,9.86,0,0,1,4.45,4.64c2.58,6.77,1.16,13.87,1.71,20.81.23,3-1.31,6.39,1.71,8.72,2.72-7.2.79-14.58,1.32-21.8.29-4-.15-8.1,4.28-10.29,5-1.15,7.13,2.85,9.66,5.78,15.76,18.27,30.66,37.28,46.76,55.28,14.16,15.63,27.21,32.28,43.68,45.74,4.41,3.6,9.92,6.86,9.78,13.88-2.6,7.69-9.86,11-15.19,16.11-15.09,14.39-53.85,36-71.22,36.11a135.15,135.15,0,0,1,21.17-1.88q212,.11,424,0c14.6,0,14.48,0,7.33-12.95-23-41.83-46-83.71-76.75-120.6-32.86-39.37-70.71-72.07-119.52-90.32-3.22-1.2-6.4-2.57-8.31-5.73,0-10.62,3.18-20.92,3.21-31.55,3.13-5.11,8.56-7,13.54-9.4C897,748.66,917,744,938.29,746.34c15.29,1.61,30.24,4.36,43.52,12.8,3.17,4.15,1.5,8.27-.28,12.27-2.91,6.52-5.53,13.16-8.58,19.61-2.15,4.55-2.56,7.74,4.12,7.42,3.09-.15,6.22.29,8.82,2.36,1.6,1.55,2.16,3.71,3.2,5.59s3.58,3.11,4.42,1.43c4.08-8.18,12.93-5.7,19-9.18,1.23-4.75-2-8.22-3.43-12.15-1.35-3.65-4.15-7.07-1.62-11.28,4.93-2.08,8.37,1.24,11.85,3.59,16.5,11.17,32.71,22.73,47.39,36.29a10.18,10.18,0,0,1,1.57,2.17c3.26,6.17,2.83,12.22-2.1,17.07-4.67,4.61-3.71,8.38.21,12.48,2.52,8.52,1.26,17.26,1.3,25.89,0,5.92,1.65,9.38,8.09,9.88,14.57,1.13,29.05-1,43.59-.81,2.77,0,4.29-2.2,5.81-4.17,6.3-5.47,10.41-.37,14.14,3.47,16.67,17.16,35.39,32.17,51.76,49.64,8.27,8.31,17.33,15.73,26.41,23.12,2.66,6.41,1.26,13.18,1.77,19.78.26,3.37-1.22,7.08,1.59,9.95,3.68-5.82-.67-12.87,3.05-18.59,4.39-3,7.5.34,10.66,2.37,5.93,3.79,11,8.69,16.86,12.65,23.47,16.58,47.41,32.31,74.5,42.59a59.78,59.78,0,0,0,20,4.09c93.5,2.36,187,1.76,280.54,1.79,3.39,0,6.84.53,10-.63,1.34-1.19.87-2.42.29-3.49-25.29-46.24-50.12-92.78-84.11-133.54-32-38.33-68.72-70.43-115.51-89.7-13.3-5.48-27.34-8.44-40.88-13.08-2.55-2.52-.83-4.8.9-6.42,18.1-16.92,38-30.84,62.6-36.79a9.69,9.69,0,0,1,5.33,5.4c1.37,9.53.43,19.13.63,28.69.09,4.41.13,8.7,3.74,11.94,9.65,3.31,19.54,2.7,29.39,1.86,6.2-.53,12.33-1,18.36.9,5.14,5.56,13.06,3.6,19,6.93,6.7,9.64,8.27,7.28,12.07.48,1.71-1.51,3.82-1.94,6-2.35,9-1.73,9.1-1.78,5-10.54-2.88-6.21-5.45-12.55-8.32-18.75-1.57-3.39-3.07-6.9-1-10.68,5.27-3.81,9.48-.1,13.63,2.22,28.95,16.22,54.91,36.54,79.69,58.44,10.94,9.67,22.61,18.6,31,30.84,1.18,2.94.91,6,.94,9.11.11,11.1,4.88,19.45,14.56,25,3.45,2,7.11,3.77,9,7.58,3.1,9.42.61,19.23,2,28.78a1,1,0,0,0,.59.66c.24.08.57-.12.84-.32,2.6-7.65.81-15.45,1.26-23.11.38-6.56,2.8-10.7,10-10.48,3.61.56,6.13,2.95,8.59,5.33,31.86,30.83,64.52,60.73,100.2,87.17a15.25,15.25,0,0,1,5,5.45c1.57,6.39-2.72,11.15-4.76,16.5-1.7,4.44-.63,6.29,4.2,6.33,4.56,0,9.35-.58,13.3,2.68a10,10,0,0,1,2,4c.83,3,1.55,5.9,5.68,5.84s4.62-3.18,5.56-6a8.91,8.91,0,0,1,2.84-4.56c3.21-2,6.65-2,10.19-1.28C1882.5,1017,1899.87,1022.13,1916,1030.18Z" transform="translate(0 99.88)"/>
  <path class="cls-3" d="M1456.58,742.49c-6.67,6.57-16.21,7.32-24,11.83a211.21,211.21,0,0,0-38.77,28.91c-.67,5.75-5.15,9.19-8.57,13-23.93,26.47-42.23,56.9-61.48,86.66-15.88,24.56-31.46,49.33-50.27,71.82-4.06,4.86-7.46,11-15.18,11.11-8.91-7-15.62-15.43-16.77-27.25.51-2.8,2-5.19,3.14-7.76,8.87-20.51-4.69-40.66-27.21-40.36-3.1,0-6.22.63-9.23-.63-7.83-5.67-11.72-14.42-16.75-22.17-11-17-22.37-33.73-32.89-51-2-3.32-5.23-6.5-2.92-11q41.16-63.47,82.32-126.93,65.54-101.08,131.08-202.16c1.69-2.61,3.58-5.08,5.38-7.61,2.85,0,4.75,1.79,5.89,4,3.89,7.38,9.36,6.59,15.7,3.74,5.66-2.54,11.48-4.74,17.28-6.95,11.42-4.35,14.28-3.26,18.14,8,6.25,18.2,12.5,36.41,18,54.85.45,1.49.81,3,1.3,4.47,2.95,8.69,3.52,18.94,14.58,22.4,1.8,4.18,1.32,8.6,1.33,12.92q.09,72.82.07,145.65a107.58,107.58,0,0,1-1.28,14.85Q1464.27,740.55,1456.58,742.49Z" transform="translate(0 99.88)"/>
  <path class="cls-4" d="M1462.87,734.41l0-177.73c-2.15-4.6,1.05-7.7,3.32-10.86Q1479,528,1492,510.43c6.6-8.87,10.33-9.55,19.53-3.81,5.53,3.45,11,7,16.26,10.87s8.66,3.43,10.67-3.45c2.26-7.74,4.75-15.44,7.6-23,2.92-7.75,6.2-8.93,14.18-5.89,8.62,7.13,13.17,17.28,19.08,26.34q72.62,111.22,144.8,222.73l190,292.62c-17.79-1.72-33-10.09-48.33-18.4,8.14-3.88,7-9.08,3.62-16.2-8-16.68-14.77-33.95-22.55-50.65-6.67,9.18-9.24,20.23-14.38,30-2.11,4-2.86,9.11-8.25,10.58-17.64-10.59-33-24.19-48.43-37.59-21.55-18.72-42.87-37.75-62.79-58.26,0-4.79,4-6.74,6.75-9.55,12.46-12.95,12.67-29.21.38-40.38-12.91-11.72-30.56-10.14-41.91,3.74-2.11,2.59-3.48,6.06-7.45,6.54-25.36-23.35-50.8-46.62-79.06-66.5-13.7-9.64-27.51-19.17-43.3-25.27-4.8.13-4.86-4.75-7.41-6.95-2.42-.7-3.92,1.82-6.14,1.8a8.65,8.65,0,0,1-7.28-2.69c-3.59-7-11.09-11.86-11.68-20.63-.07-1.07-.48-2.89-2.25-2-7,3.41-10.25-2.38-14-5.93-5.15-4.85-9.27-4.76-14.12.4-4.43,4.71-9.9,8.36-14.67,12.77C1468.74,733.66,1466.51,736.46,1462.87,734.41Z" transform="translate(0 99.88)"/>
  <path class="cls-3" d="M8,1027.14l-4.08-.49c14.44-22.54,28.75-45.15,43.34-67.59Q149.41,801.9,251.72,644.83q40.79-62.67,81.55-125.37c.63,0,1.48-.15,1.79.26,7.91,10.49,16.76,6.22,26.15,2.28,19.35-8.1,20.26-7.55,26.81,12.47,5,15.35,10.59,30.52,15,46.09,2.27,8.1,3.33,17,13.52,19.71,1.39,2.91,1.43,6,1.44,9.11.08,25.7,0,51.4.06,77.1,0,3.44-.8,6.75-1.14,10.12-2,8.34-7,13.31-15.88,13.88-22-3.51-43.78-4.73-65.07,3.64-5.41-.57-5.34-6-8.07-8.92-4.63,2.51-3.93,7.91-6.41,11.53-2.27,3.31-2.58,8.46-8.16,8.63a129.43,129.43,0,0,0-36.07,27.72,34.69,34.69,0,0,1-7.87,11.48c-25.42,25.65-43.77,56.49-63.54,86.3-4.43,6.68-7.54,14.38-14.36,19.29-4.65.65-7.28-2.87-10.47-5.17-13.87-10-31.31-7.73-40.34,5.29-9.2,13.28-5.07,31.23,9.29,40.39,3.11,2,6.73,3.34,8.49,7a6.65,6.65,0,0,1,.26,2.74c-19.93,31-44.4,57.68-75.08,78.31-21.62,14.53-44.44,26.43-71,28.84A8.68,8.68,0,0,1,8,1027.14Z" transform="translate(0 99.88)"/>
  <path class="cls-4" d="M414.09,698.87q0-50.54,0-101.08c-1.82-3.79.48-6.61,2.37-9.4C424,577.28,432,566.52,440,555.78c5.77-7.71,9.29-8.14,17.48-3.28,2.68,1.59,5.22,3.41,7.82,5.14,14.16,9.45,14.14,9.44,19.6-7.15,1.36-4.15,2.2-8.5,4.15-12.41s4.22-7.26,9.31-4.12c4.58-.13,7.26,2.37,9.66,6.08q70.93,109.38,142,218.64c13.76,21.15,27.63,42.23,41.39,63.38,2,3.11,3.74,6.42,5.61,9.64,3,4.25.31,7.75-1.78,11-14.6,23-29.79,45.63-44.52,68.55-1.9,3-3.84,6.72-8.67,5.26-18.45-19.62-35.35-40.54-51.76-61.86,1.61-3.78,5.58-4.8,8.43-7.12,13.92-11.33,16.46-28.1,6-40.23-11.82-13.66-29.47-14.13-42.87-1.22-2.57,2.48-4.39,6.36-9,5.53-28.62-32-58.83-62.1-97.26-82.52-7.47-1.49-10.57-6.93-12.37-13.6-.61-2.25-.27-6.48-3.13-5.94C428.85,711.67,423.19,701.24,414.09,698.87Z" transform="translate(0 99.88)"/>
  <path class="cls-3" d="M642.12,916.54c6.13-3.89,8.11-10.81,11.84-16.42,12.89-19.41,25.53-39,38.35-58.44,2.07-3.14,4.25-6.14,4.78-10,3.91-2,5.3-6,7.46-9.32q74.91-115,149.75-230.09c2.67-4.09,4.48-9,9.36-11.35,8.28,8.08,16.72,4.94,25.24.43A37.91,37.91,0,0,1,895,579c8.7-2.82,11.85-1.5,15.12,7.1,5.09,13.4,8.7,27.3,13.18,40.91,3.26,9.91,4.57,21.08,16,26.1,2.23,7,1.17,14.17,1.22,21.25.14,19.52.08,39,0,58.55,0,4.69,0,9.38-3.83,12.92-26.31-1.35-50.45,5.68-73,18.86-4.16-.59-5.94-4.22-8.52-6.77-12.5-12.37-29.16-13.22-40.75-2-10.84,10.49-10.72,28,.28,40.22,2.06,2.28,4.67,4.16,5.29,7.47.2,3.07-1.48,5.33-3.27,7.52-25.68,31.56-46,66.77-68.27,100.63-13.05,19.83-27.11,38.91-43.09,56.51-2.21,2.44-4.18,5.74-8.46,4.28A372.79,372.79,0,0,1,642.12,916.54Z" transform="translate(0 99.88)"/>
  <path class="cls-5" d="M1155.77,294.7c-10.13,18.3-26.68,26.14-46.57,28a60,60,0,0,1-36.84-8.13c-2.89-1.71-4.49-1.42-7.33.36-51.77,32.49-104.71,33.8-158.4,5-5.88-3.15-9.48.29-13.74,2.3-39.56,18.64-85.89-3.39-96.61-44.56,4.46-14.42,16.07-21.79,28.52-27.74,16.31-7.79,33.52-9.9,50.94-4.05,7,2.35,10.38.61,13.94-5.8,10.26-18.48,28.51-27.34,49.46-23.94,8.08,1.31,10.22-3.56,13.29-8.7,20.42-34.26,64.36-47.52,100.41-30.75,25.91,12.05,40.58,32.6,45.15,60.15,1.51,9.11,5.44,12.42,13.82,14.24,17.86,3.87,31.83,13.86,41.37,29.62C1155.74,285,1158.24,289.43,1155.77,294.7Z" transform="translate(0 99.88)"/>
  <path class="cls-4" d="M936.65,745.82l-.37-96.09c-2-3.75.3-6.62,2.19-9.35,6.89-9.94,14-19.7,21.3-29.37,4.19-5.57,8.83-6.18,14.41-2.33,4.09,2.82,8,5.83,12.19,8.55,7.68,5,7.68,5,10.58-3.33,1.93-5.57,3.28-11.37,6-16.63,3-6,7.42-9.24,14.25-5,10.62,16.8,21.09,33.71,31.9,50.39q51.47,79.41,103.17,158.68a52,52,0,0,0,3.48,4.31q23.69,37,47.37,74.1c1.82,2.86,3.45,5.83,5.17,8.75.53,3.44-2.11,5-4.25,6.55-8.69,6.43-12.13,15.12-11.92,25.7.07,3.45,1,7.73-4.06,9.08q-26.43-24.91-52.87-49.81c-2.68-2.51-4.79-5.8-8.65-6.84-6.81-4.93-3.79-12.24-4.4-18.63a24.08,24.08,0,0,1,.94-10c7-5.7,4.4-10.27-1.29-15.25-6-5.28-11.41-11.28-17.11-16.93-10.06-10-10.64-10-20.84-.54-3.12,2.88-5.85,6.56-10.88,6.12-3.14-1.46-6.55-2.36-9.42-4.42-15.15-11.3-30.25-22.66-45.49-33.85-3.74-2.74-7.9-4.9-11.87-7.33-5.34-1.23-6.27-6.19-8.45-10.06-2.83-5-3.51-11.08-7.27-15.61-5.55,1.92-3.4,11.15-10.74,11.26A197,197,0,0,0,936.65,745.82Z" transform="translate(0 99.88)"/>
  <path class="cls-5" d="M450.46,239.78c-12.72,23.33-46,33.81-70.7,21.52-6.53-3.25-10.67-2.68-16.52,1.33-17.89,12.26-38.3,17.16-59.77,18.4C277.08,282.55,252,278.3,229,264.76c-4.33-2.54-7.6-1.74-11.94.62-31.06,16.84-73.87.17-85.76-33.16-.81-2.28-.76-4.87-1.11-7.31,9.28-18.78,25.73-26.69,45.32-29.35a60,60,0,0,1,24.77,2.3c6.18,1.79,10.22,0,12.32-6.11,9.1-14.36,21.95-21.66,39.15-20.75,7.7,1.84,12.44-1.06,16.75-7.9,15.76-25,44-38,71.32-32.34C370,137,390.09,155,396.84,185.61c2.17,9.84,5.18,15.73,16.23,17.71,14.45,2.6,24.63,12.73,33.21,24.3C449,231.29,450,235.41,450.46,239.78Z" transform="translate(0 99.88)"/>
  <path class="cls-6" d="M1155.77,294.7c-7.43-22.91-23.8-36-46.7-40.88-8.38-1.79-12.79-3.29-13.9-13.91a75,75,0,0,0-63.78-66.54c-32.92-4.77-66.38,12.64-79,41.28-2.43,5.53-5.2,7.61-11.37,5.35-18.55-6.78-45,7.2-51.16,27-1.46,4.69-3.1,6.38-8.63,4.35-32.16-11.82-61.34-3-82.14,24.05a16.45,16.45,0,0,1-2.84,2.36c-9.27-40.51,12.7-70.54,38.35-81.8,17.65-7.75,35.6-8.47,53.59-1.29,5.36,2.14,8.19,1.76,10.12-4.57,5.92-19.46,30.24-32.61,49.44-26.55,6.49,2,9.71.08,12.79-6.1C975.22,128,1006.66,112.28,1040,117c30.21,4.24,56.56,29.79,61.23,61.3,1.81,12.24,5.53,17.39,18.89,20.05C1162.37,206.73,1181.9,261.56,1155.77,294.7Z" transform="translate(0 99.88)"/>
  <path class="cls-7" d="M1560.22,485.16c-7.59-.65-11,3.24-12.69,10.35-2,8.13-5.45,15.89-7.42,24-1.9,7.79-4.91,7.58-10.54,3.32-7.42-5.63-15.46-10.43-23-15.93-3.75-2.74-6.27-2.91-9.13,1.18-11.4,16.28-23,32.41-34.53,48.59l-6.5,7.27c-3.58-10.82-6.85-20.63-10.06-30.46-6.26-19.17-12.79-38.25-18.55-57.57-2.06-6.9-4.87-7.08-10.54-4.42-7.57,3.55-15.83,5.71-23.19,9.61-8.1,4.29-12.6,1.94-15.85-5.78a56.63,56.63,0,0,0-3.72-6.44l76.23-118.59c1-1.57,2-3.13,3.05-4.7,9.82-15.22,9.66-15.12,19.44-.07,28,43.06,56.15,86,84.08,129.1C1559.24,477.61,1563.9,480.39,1560.22,485.16Z" transform="translate(0 99.88)"/>
  <path class="cls-5" d="M1771,153.17c-10,18.61-32.89,25.83-54.21,16.4-4.59-2-7.43-2.07-11.67.56-31.38,19.46-64.11,19.83-97.24,5.22-6.94-3.06-12.34-4-19.78-1.11-27.49,10.58-57.75-5.52-62.35-32.33,7.76-16.76,28.74-27,48.67-22.61,7.92,1.76,12.37.31,16.92-6.47,6.52-9.72,16.65-13.92,28.34-13.2,5.67.35,9.07-1.75,12.35-6.29,13.45-18.63,31.25-28.62,54.73-24.14,24.18,4.61,39.26,19.43,44.43,43.54,1.56,7.29,5.8,10,12.26,12.14C1757.39,129.47,1768.84,136.94,1771,153.17Z" transform="translate(0 99.88)"/>
  <path class="cls-7" d="M498.39,534c-4.86-.23-6.14,3.18-7.3,7-3.1,10.09-6.35,20.13-9.9,31.31-9.39-6.37-18-11.9-26.26-17.93-4.6-3.37-7.51-4-11.19,1.5-9.56,14.22-19.73,28-29.65,42l-6.48,7.27c-3.53-10.87-6.72-20.71-9.93-30.55-5.39-16.53-10.9-33-16.12-49.59-1.53-4.87-3.53-6.6-8.65-4.23-6.75,3.13-14.12,5-20.65,8.49-7.59,4.06-12.61,3.07-16-5a31.48,31.48,0,0,0-3-4.7c6-13.83,15.48-25.53,23.38-38.17,17-27.21,34.94-53.85,52.21-80.9,4-6.23,6-6,9.93.16,26.63,41,53.62,81.84,80.39,122.8C501.41,526.77,506,531,498.39,534Z" transform="translate(0 99.88)"/>
  <path class="cls-7" d="M1017.15,592.21c-7.24-.51-11.91,2.3-13.09,9.9a36.42,36.42,0,0,1-1.68,5.32c-6.5,20.31-6.5,20.31-24.37,7.81-11.5-8-11.6-8.12-19.81,3.27-7.44,10.31-14.63,20.81-21.93,31.22l-6.76,6.46c-7.4-22.84-14.43-44.63-21.51-66.4-3.63-11.17-3.66-11.15-14.28-6.86-3.45,1.4-6.94,2.72-10.37,4.17-12.41,5.23-12.41,5.25-19.7-6.15,1.33-10.1,8.86-16.93,13.83-25,17-27.5,34.84-54.5,52.42-81.65,5.37-8.3,5.3-8.13,11,.55q35.68,54.71,71.53,109.32C1014.09,586.8,1015.57,589.54,1017.15,592.21Z" transform="translate(0 99.88)"/>
  <path class="cls-8" d="M145.34,165.58c-18.43-24.76-19.25-56.75-2.11-82.08A71,71,0,0,1,220.45,55c28.21,7.48,49.34,33.1,52,63,.16,1.86.29,3.72.44,5.59a3.45,3.45,0,0,1,0,4.12c-3.64,2.1-7.25.41-10.88-.06-16.5-2.15-29.9,4.91-37.58,19.8-5.19,10-5.77,10.55-16.6,7.29-19.15-5.77-36.78-3-53.17,8.37C151.9,165,149.16,167.41,145.34,165.58Z" transform="translate(0 99.88)"/>
  <path class="cls-6" d="M272.26,126.62l.58-3.08c11-22,27.91-35.55,52.68-39.93C357,78,394.26,101.5,399.4,133.24c2.28,14.08,6.54,20.48,21.41,24,30,7.08,51.2,47.38,29.65,82.55-5.19-6.94-9.33-14.59-15.79-20.7-9-8.49-19.35-13.68-31.5-14.72-5.16-.44-6.63-2.26-7.27-7.25-4.07-31.79-20.37-53.83-52.23-62.14-28-7.31-58.16,4.66-72.46,29.79-5,8.77-9.61,12.78-19.24,9.36-1.36-3,.32-5.45,1.87-7.66,7-10,12.16-20.68,14.38-32.73A12.8,12.8,0,0,1,272.26,126.62Z" transform="translate(0 99.88)"/>
  <path class="cls-6" d="M1771,153.17c-7.84-14.31-18.56-24.84-35.57-27.15-6.34-.86-6.39-6.41-7-10.68-2.13-14.37-9.18-25.35-20.7-34-23.55-17.74-59.39-10.87-73.69,15-3.45,6.23-6.37,7.94-13.57,6.72-13.17-2.23-24.67,5.14-30.6,18.06-1.45,3.16-2.12,5.57-6.53,3.9-21.23-8-39-2.26-53.89,14.12a25.53,25.53,0,0,1-3.68,2.82c-4.7-17.63.22-32.82,12.77-45.33,12.82-12.77,28.8-15.31,45.91-11.28,5.15,1.21,9.07,2.93,11.88-3.87,5-12,14.75-17.71,27.61-16.13,7.78,1,11.89-1.19,16-8.12,11.21-18.88,34-28,53.93-22.94,23.25,5.92,37.9,22.84,39.68,46.23.32,4.23.91,6.72,6.07,7.32C1772.4,91.59,1787.72,127.51,1771,153.17Z" transform="translate(0 99.88)"/>
  <path class="cls-9" d="M272.26,126.62c-.88,18.35-8.8,33.69-20.29,47.51-16.37-1.45-27.87,6.79-37.42,18.87-7.58,6.79-16.2,3.8-24.7,2.79-16.1-1.91-29.38-9.06-40.29-20.89-2.13-2.31-4.05-4.7-4.21-8q0-.64,0-1.28c8.76-6.51,17.61-12.76,28.46-15.56,13.19-3.41,26-2.2,38.44,2.75,3.2,1.27,5.15,2.11,7.21-2C231.87,125.76,244.86,120,272.26,126.62Z" transform="translate(0 99.88)"/>
  <path class="cls-6" d="M145.35,213.86c12,11.08,23.64,22.41,41,25.34a99.19,99.19,0,0,0,28.24.79c-1.26,8.65-4.27,11.56-14.17,8.46-23.43-7.33-44.65-2.34-62,16-2.54,2.68-5.49,5-8.25,7.46C124.7,249.8,129.36,230.35,145.35,213.86Z" transform="translate(0 99.88)"/>
  <path class="cls-10" d="M190.75,869.28c24.35-39.15,48.45-78.49,80.62-112,1.67-1.74,2.83-4.24,5.81-4.19,15.1,5.62,31,8.67,45.91,15.1a314.91,314.91,0,0,1,80.48,50.28c47.55,40.73,82.52,91.13,112.95,145.13q18,32,36.24,64.09c-2.93,1.93-6.1,1-9.07,1q-262.42.06-524.83-.05c-3.65,0-7.53,1-10.88-1.45,54.58-10.79,96.1-41.88,130.5-84,6.29-7.7,12.34-15.59,18.5-23.39,4.8,2.65,3.44,7.47,4.12,11.6.92,5.55-1.94,11.48,1.69,16.62,2.89-7.29,1.06-14.78,1.25-22.1.17-6.33,2.59-10.24,8.25-13.16,16.22-8.36,20.51-17.35,17.69-35.45C189.54,874.54,188.72,871.77,190.75,869.28Z" transform="translate(0 99.88)"/>
  <path class="cls-10" d="M1259.07,965.53c17.44-16.78,30.74-36.8,44.2-56.68,23.07-34.07,43.13-70.2,69.12-102.28,6.65-8.21,13-16.75,21.46-23.35,25.47,2.06,48.23,12.25,69.94,24.59,58.91,33.49,100,84.27,134.28,141.23,15.52,25.79,29.92,52.25,44.89,78.51-3.23,1.9-6.39,1-9.38,1-70.2,0-140.42.79-210.6-.4-28-.47-56.06-.79-84.08-1.43-11.9-.27-22.06-6.53-32.38-11.4-21.13-10-41.31-21.65-59-37.19C1247.43,970.35,1252.16,967,1259.07,965.53Z" transform="translate(0 99.88)"/>
  <path class="cls-10" d="M696.86,972.53C723.18,946,742.92,914.6,763,883.41c17.5-27.25,34.45-54.89,55.62-79.58,4.78-2.85,7.92-.23,10.83,3.2,3.22,6.65,1.57,13.82,2.18,20.76.29,3.29-1.51,7,1.72,9.69,2.72-7.3,1.05-14.76,1.21-22.08.14-6.29,2.14-11.08,8.22-13s9.63-9.16,17.09-7.93c42.45,13.89,77.92,38.82,108.6,70.55,28.68,29.67,52.46,63.19,72.74,99.14,10.87,19.26,21.56,38.62,32.75,57.69,3.24,5.51,2.31,7.15-3.74,6.82-1.24-.07-2.5,0-3.74,0l-456.7,0H602.3C638.79,1018.09,670.94,1000.6,696.86,972.53Z" transform="translate(0 99.88)"/>
  <path class="cls-11" d="M1188,929.77c3.14-4.05.14-8.31.41-12.45.89-13.56,8.14-22.74,19.83-28.88,22.78-3,36.5,4.11,41.7,21.42,3.26,10.85,0,20.19-6.14,29-2.38,5.13-5.52,9.84-11.25,11.24-5.94,1.46-5.48,7.73-9.18,10.71-1.36,8.77,1.53,17.83-1.73,26.48a5.76,5.76,0,0,1-3-4.51c-.75-14.57-2.87-29.38,1.31-43.55,1.65-5.59-4.72-8.93-1.64-13.33-1.74,9.59-3.05,10.13-11.15,4.31a8.52,8.52,0,0,1-1-1.1,8.17,8.17,0,0,0,1.16,1.26c10.47,9,11.31,11.8,6,19.71C1201.94,947,1195.73,937.46,1188,929.77Z" transform="translate(0 99.88)"/>
  <path class="cls-11" d="M552.84,811.65c3-1.44,3.94-4.71,5.93-7a31.67,31.67,0,0,1,35.49-9,31.2,31.2,0,0,1,20.16,30.62c-.7,13.57-10.3,24.93-24.06,28.47-4.62,1.75-3.78,5.77-4.05,9.44-.72,9.83,1.79,19.81-1.42,29.51a5.76,5.76,0,0,1-3-4.51c-.74-14.58-2.89-29.4,1.33-43.57,1.67-5.6-4.86-8.89-1.68-13.26-1.72,9.57-3.05,10.11-11.16,4.24-.76-.81.4.47-.45-.45.15.19.34.33.57.57,10.53,9.1,11.26,11.46,6.16,19.59C555.35,848.51,549.17,832.71,552.84,811.65Z" transform="translate(0 99.88)"/>
  <path class="cls-11" d="M827.69,807.51l-9.12-3.68C808.39,796.46,802,787,802.89,773.93c.93-13.48,9.24-24,21.46-27.76,12.6-3.91,25.63.06,34.29,10.67a77.51,77.51,0,0,1,5,7.84c3.62,10.56,1.6,20.4-3.82,29.81-5.72,4.6-10.43,10.59-18.44,11.84-4.51.7-3.93,4.75-4.19,8.15-.77,10.08,1.79,20.32-1.41,30.28a6.43,6.43,0,0,1-3.16-5.43c-.15-14.49-2.89-29.21,1.83-43.32,1.7-5.08-6-7.86-1.89-11.71-2,8.86-3.26,9.34-11.26,3.53-.76-.81.41.48-.44-.44.14.18.32.32.54.55C831.95,797,832.66,799.3,827.69,807.51Z" transform="translate(0 99.88)"/>
  <path class="cls-11" d="M1670.79,846.74c8.53-20.79,29.58-26.14,45.19-17.63,18.28,10,22.25,33.53,7.81,48.39-3.22,3.32-7.16,5.95-10.77,8.89-6.5-.62-8.53,2.55-8.73,8.78-.33,10.1,1.86,20.33-1.32,30.31a5.76,5.76,0,0,1-3-4.51c-.74-14.58-2.92-29.41,1.34-43.57,1.7-5.64-5.74-8.81-1.82-12.56-1.6,8.86-2.93,9.4-11,3.53-.76-.81.4.47-.45-.45.15.19.34.33.57.57,10.52,9.1,11.26,11.46,6.16,19.59-13.32-5.53-23.77-13.55-24.61-29.42C1669.91,854.71,1670.54,850.71,1670.79,846.74Z" transform="translate(0 99.88)"/>
  <path class="cls-12" d="M1125.91,841.46q.29,15.83.59,31.66c.72,7.38-2,10.39-10,10-15.25-.66-30.56-.53-45.82,0-7.18.23-9.17-2.36-8.86-9.17.47-10.58.09-21.2.07-31.8-.34-3.15,1.52-5.32,3.47-7.34,7.14-7.4,14.5-14.58,21.77-21.85,5.14-5.14,10-5.51,15.32-.22,6.83,6.83,13.82,13.5,20.41,20.56C1124.92,835.51,1127.42,837.81,1125.91,841.46Z" transform="translate(0 99.88)"/>
  <path class="cls-13" d="M418.11,779.53c-7.79,0-15.59-.2-23.38.07-4.94.17-6.57-1.89-6.48-6.63.2-10.6.26-21.2,0-31.8-.15-5.46,2.22-6.94,7.27-6.87,15.58.2,31.18.27,46.76,0,5.83-.11,7.59,2.1,7.41,7.67-.33,10-.41,20,0,29.92.28,6.37-2.27,8.09-8.2,7.78C433.71,779.22,425.9,779.53,418.11,779.53Z" transform="translate(0 99.88)"/>
  <path class="cls-14" d="M1517.11,792.77l-54.17-.1c-2.07-13.87-.49-27.83-.88-41.74-.13-4.6,3.19-5.75,6.85-5.82,16.15-.31,32.3-.39,48.45,0,6.8.17,8.65,5,9.19,10.75.62,6.54-1.46,13-.84,19.5C1526,782.75,1524.93,789.43,1517.11,792.77Z" transform="translate(0 99.88)"/>
  <path class="cls-15" d="M414.09,698.87c3.81-3.64,6.55-1.87,10,1.09,4.44,3.77,8.12,11.4,16.19,5,1.26-1,6-.92,5,2.93-2.61,10.25,5.72,14.74,10.27,21.25-1.81,3.81-5.22,3.76-8.73,3.76-18.59,0-37.19,0-55.78,0-2.71,0-6,.77-7.52-2.28-1.89-3.83,1.94-5.34,3.87-7.49,4.13-4.61,10-7.31,13.54-12.61Z" transform="translate(0 99.88)"/>
  <path class="cls-16" d="M1462.87,734.41c7.74-6.72,15.87-13,23.07-20.29,4.87-4.91,8.41-5.11,12.9-.12a62.84,62.84,0,0,0,7.62,6.87c2,1.6,4.19,6,5.69-1,.68-3.17,6.78-2.93,6.4.55-1,9.42,4.09,14.94,9.68,20.8.74.77,0,2.95,0,4.47-3.57,3.34-7.74.89-11.55.94q-27.81.32-55.64.05a7,7,0,0,1-4.43-4.23C1457.16,738.61,1461.15,737.4,1462.87,734.41Z" transform="translate(0 99.88)"/>
  <path class="cls-17" d="M1824.23,982.23c6.36-14.34,12.62-28.72,19.23-42.94.57-1.22.14-8.43,5-2.48,3.27,19.57,2,39.31,2.18,59,0,4.33.06,8.68-2.8,12.38-3.39,2.77-6.78,2.85-10.16,0-6.15,0-12.31-.21-18.46-.07-4.53.11-5.32-1.53-3.54-5.51C1818.69,995.88,1821.4,989,1824.23,982.23Z" transform="translate(0 99.88)"/>
  <path class="cls-18" d="M1846.74,1007.92c0-20.75,0-41.49.1-62.24,0-3-.81-6.26,1.63-8.85q13.42,30.62,26.83,61.25c4.26,9.73,4.24,9.73-6.73,10.1-.93,0-1.85.18-2.77.28l-11.29-.06C1851.8,1010.15,1849.17,1010.54,1846.74,1007.92Z" transform="translate(0 99.88)"/>
  <path class="cls-19" d="M1125.91,841.46c-9.1-9.24-18.35-18.33-27.21-27.79-3.44-3.67-5.52-3.19-8.74.17-9.18,9.6-18.69,18.89-28.07,28.31-2.37.73-5,1.77-6.39-1.25s.85-5.35,2.82-7.13c5.56-5,9.72-10.35,6.12-18.35,3.85-2.79,6.68-1.29,9.07,2.13q7.78-7.28,15.55-14.55c3.09-2.9,6.3-4,9.74-.6q16.13,16.08,32.22,32.22c1.83,1.84,3.21,4,1.5,6.61C1130.54,844.17,1128.14,842.2,1125.91,841.46Z" transform="translate(0 99.88)"/>
  <path class="cls-20" d="M979.68,757.9c3.76-4.63,5.09-10.43,7.62-15.66,1.63-3.37,3.38-4.68,5.19-.09a213.63,213.63,0,0,1,2.24,39.7c-.26,6-.69,11.81-4.76,16.66a5.36,5.36,0,0,1-6.64.05c-20-.46-19.75-.35-12.27-19.13C973.91,772.26,978.73,765.83,979.68,757.9Z" transform="translate(0 99.88)"/>
  <path class="cls-21" d="M1517.11,792.77c2.59-4.78,5.13-9.58,6.19-15,2.63-10.4,4.15-21.29,12.64-29.15,1.09-1.75,2.22-3.48,3.25-5.26,1.93-3.35,3-1.74,3.92.65,2.3,13.93,2.62,28,2.26,42-.11,4.31.05,8.65-2.83,12.31-2.77,2.24-5.54,2.29-8.31,0-4.67,0-9.35-.16-14-.12C1515.79,798.27,1515.83,795.91,1517.11,792.77Z" transform="translate(0 99.88)"/>
  <path class="cls-22" d="M517.11,912.73c-18.19-.4-18.3-.45-11.41-17.18q7.28-17.68,15.28-35c.51-1.12.74-8.78,5-1.84a223.31,223.31,0,0,1,2.43,41.65c-.2,4.35,0,8.75-2.94,12.43C522.7,914.92,519.9,914.85,517.11,912.73Z" transform="translate(0 99.88)"/>
  <path class="cls-18" d="M989.44,798.14c2-16,1.11-32.06,1.33-48.1,0-2.72-.58-5.63,1.71-7.88l13.65,30.15,10.48,25.79C1007.57,799.29,998.51,800.89,989.44,798.14Z" transform="translate(0 99.88)"/>
  <path class="cls-4" d="M1223.38,960.8c-1.63-7.34-.11-12.37,8.51-13.71,5-.78,7.8-5.66,11.92-8.24,1.92,10.7,10.6,17.54,15.25,26.68l-11.53,12.64C1238.36,973.95,1231.73,966.17,1223.38,960.8Z" transform="translate(0 99.88)"/>
  <path class="cls-18" d="M1541.47,798.07c0-15.08,0-30.16,0-45.24,0-3-.76-6.22,1.62-8.82l5.32,11c5.05,11.88,9.88,23.87,15.26,35.6,2.89,6.32,1.17,8.19-5.33,7.67a105.37,105.37,0,0,0-11.07.23C1545.25,799.78,1543.29,800,1541.47,798.07Z" transform="translate(0 99.88)"/>
  <path class="cls-18" d="M524.24,912.47c.07-14.64.09-29.28.27-43.92,0-3.33-1-6.91,1.51-9.89L549.45,913h-19C528.24,914.32,526.15,914.37,524.24,912.47Z" transform="translate(0 99.88)"/>
  <path class="cls-20" d="M313.26,725.35c5.34-7.21,7.39-16,11.51-23.8,1.15-2.18,2.35-6.38,4.9-.78,1.4,12,2.79,24,2.12,36.19-.22,4,.09,8.12-2,11.83-1.88,2.84-4.6,3.35-7.72,2.75-3-1.95-6.45-2.1-9.78-1.72-7.76.89-7.78-2.22-5.24-8.25C309.3,736.26,312.92,731.4,313.26,725.35Z" transform="translate(0 99.88)"/>
  <path class="cls-18" d="M327.55,749.62c.12-13,.18-26.06.41-39.09.06-3.3-1-6.89,1.71-9.76l6.23,13.33c4.05,12.2,11.17,23.15,14.4,35.68C342.71,750.22,335.12,752.31,327.55,749.62Z" transform="translate(0 99.88)"/>
  <path class="cls-23" d="M1694.73,888.08c2.82-9.37-4-14.52-9-20.47-.47-1.74,0-2.58,1.9-1.89,9.81,6.25,9.81,6.25,12.26-9.15.7,5.84.48,9.35,1.62,12.36,1.87,4.93,6.12-.81,9.69,2-8.8,4-8.53,11.54-8.35,19.33.27,11.75.08,23.51.09,35.26-6.26,1.32-8.23-1.37-8-7.51C1695.23,908,1694.83,898,1694.73,888.08Z" transform="translate(0 99.88)"/>
  <path class="cls-23" d="M576.65,856.24c2.82-9.37-4-14.52-9-20.47-.47-1.74,0-2.58,1.9-1.89,9.81,6.25,9.81,6.25,12.26-9.15.7,5.83.48,9.35,1.62,12.36,1.87,4.93,6.12-.81,9.69,2-8.8,4-8.53,11.54-8.35,19.33.27,11.75.08,23.51.09,35.26-6.26,1.32-8.23-1.37-8-7.51C577.15,876.18,576.75,866.21,576.65,856.24Z" transform="translate(0 99.88)"/>
  <path class="cls-23" d="M1206.34,927.51c9.81,6.25,9.81,6.25,12.26-9.14.7,5.83.48,9.35,1.62,12.35,1.87,4.93,6.12-.81,9.7,2-8.83,4-8.56,11.56-8.41,19.32.23,11.75.11,23.51.14,35.26-6.19,1.29-8.23-1.3-8-7.45.3-9.91-.12-19.84-.24-29.76,2.95-9.44-3.88-14.66-8.92-20.66C1204,927.67,1204.39,926.83,1206.34,927.51Z" transform="translate(0 99.88)"/>
  <path class="cls-24" d="M1535.94,748.62a128.21,128.21,0,0,1-12.64,29.15c-.11-7.48-.48-15-.25-22.44.17-5.35-1.18-8-7.23-7.84q-22.92.5-45.86,0c-5.91-.12-7.51,2.27-7.35,7.74.34,12.47.25,25,.33,37.43-4-7.93-1.25-16.4-1.8-24.59-.48-7.09-.11-14.25-.12-21.37l67.18-1Z" transform="translate(0 99.88)"/>
  <path class="cls-25" d="M1846.74,1007.92l7.76.48c-1.57,4.63,3.69,12.07-6.69,13-11.63,1.08-10.41-6.08-10.13-13.25Z" transform="translate(0 99.88)"/>
  <path class="cls-26" d="M989.44,798.14l27.19,0c-2.62,3.26-6.27,1.68-9.47,1.87-5.06.3-10.55-1.27-11.24,7-.33,3.94-4.94,2.45-7.81,2.58s-4.5-1.51-4.58-4.49c-.06-2.15-.14-4.3-.21-6.45Z" transform="translate(0 99.88)"/>
  <path class="cls-27" d="M327.55,749.62l22.74.16c-3.23,2.79-7.12,1.26-10.71,1.63-2.47.25-5.31,0-5.8,3.27-.69,4.62-3.28,6.55-7.71,5.82-5.65-.93-3.28-5.69-4-9C323.54,749.84,325.51,749.63,327.55,749.62Z" transform="translate(0 99.88)"/>
  <path class="cls-28" d="M524.24,912.47l6.21.56c-.64,4.79,1.69,11.25-7.35,10.73-8.6-.5-5-6.82-6-11Z" transform="translate(0 99.88)"/>
  <path class="cls-25" d="M1541.47,798.07l5.82.4c-.2,4.53,1,9.54-6.61,9.46s-6.37-5-6.43-9.58Z" transform="translate(0 99.88)"/>
  <path class="cls-29" d="M1073.49,817.56a9.55,9.55,0,0,0-9.07-2.13l-.92-1.94C1067.27,813.77,1072.15,811.33,1073.49,817.56Z" transform="translate(0 99.88)"/>
  <path class="cls-11" d="M190.75,869.28c6.86,20.05,4.72,30.89-8.28,41.85-.47.4-.9,1.06-1.43,1.16-18.23,3.27-13.94,17.4-14.36,29.4-.16,4.53,1.42,9.29-1.37,13.57a6.43,6.43,0,0,1-3.16-5.42c-.15-14.48-2.93-29.22,1.84-43.29,1.75-5.15-6.63-7.8-2-11.25-1.84,8.35-3.13,8.84-11.12,3.08a8.56,8.56,0,0,1-1-1.08A7.91,7.91,0,0,0,151,898.5c10.47,9,11.23,11.5,6.15,19.73-11.59-5.38-22-11.74-24.2-26-2.2-14,3.51-26.77,15.34-33.15,12.45-6.71,26.47-4.77,37,5.11C187.11,865.91,188.94,867.59,190.75,869.28Z" transform="translate(0 99.88)"/>
  <path class="cls-23" d="M157.17,918.23c2.76-9.4-3.93-14.68-9-20.66-.47-1.74,0-2.58,1.9-1.9,9.72,6.19,9.72,6.19,12.33-8.68.67,5.38.43,9,1.67,12.09,1.89,4.67,6.23-1.26,9.51,1.85-8.27,3.85-8.62,11.06-8.42,18.79.31,11.83.12,23.68.15,35.52-6.12,1.7-8.22-.64-8-6.9.29-9.52-.18-19.06-.32-28.59A4.11,4.11,0,0,0,157.17,918.23Z" transform="translate(0 99.88)"/>
  <path class="cls-30" d="M376.35,981.89c-1.24-.09-2.49-.24-3.73-.27-16.49-.42-16.41-.38-9.36-15.95,6-13.34,11.83-26.78,17.79-40.15a1.83,1.83,0,0,1,1.46-.82c.46,0,.88.65,1.32,1,2.37,14.57,2.61,29.25,2.27,44-.1,4.31.08,8.68-3,12.26C380.84,983.67,378.59,983.33,376.35,981.89Z" transform="translate(0 99.88)"/>
  <path class="cls-31" d="M382.46,981.48q-.09-24.33-.16-48.65c0-2.46-.39-5,1.52-7.11,6.93,15.81,13.66,31.72,20.89,47.4,3,6.5,1.89,9-5.47,8.39-3.66-.29-7.38.26-11.07.43C386.15,983.22,384.21,983.54,382.46,981.48Z" transform="translate(0 99.88)"/>
  <path class="cls-32" d="M382.46,981.48l5.7.46c-.56,3.84,2,9.13-5.42,9.44-7.89.33-6-5.16-6.4-9.49Z" transform="translate(0 99.88)"/>
  <path class="cls-33" d="M1345,968.67c-.31,0-.61-.11-.92-.12-18.16-.78-18.21-.8-10.84-18.15,5-11.69,10.07-23.33,15.18-35,1.31-3,2.72-6.74,5.36-.74,1.75,11.81,3.08,23.63,2.44,35.61-.31,5.85-.77,11.64-3.63,16.93C1350.46,970,1348,970.82,1345,968.67Z" transform="translate(0 99.88)"/>
  <path class="cls-34" d="M1350.66,966.78c2.2-14.35,1.32-28.81,1.51-43.24,0-3-.73-6.21,1.56-8.85l21.88,50.51c-.43,1.76-1.64,2.43-3.37,2.54-5.81.38-11.73-.91-17.39,1.82C1353.07,970.43,1351.44,968.67,1350.66,966.78Z" transform="translate(0 99.88)"/>
  <path class="cls-35" d="M1350.66,966.78c8.41,1,16.76,1.1,24.94-1.58-1.12,6.41-6.09,2.73-9.18,3.17-4.35.61-8.54-.34-9,6.33-.33,5-5.17,3.47-8.24,3.28-6.73-.42-3.43-5.9-4.25-9.3C1347,968.59,1349.17,968.63,1350.66,966.78Z" transform="translate(0 99.88)"/>
  <path class="cls-30" d="M870.75,942.89c-21.27-.29-21.23-.27-12.77-19.41,5.65-12.78,11-25.69,16.9-38.37.82-1.76.06-7.22,5.26-4.37,2.92,16.49,2.3,33.13,2.24,49.75,0,4.34.06,8.72-3,12.33C876.53,945,873.64,944.72,870.75,942.89Z" transform="translate(0 99.88)"/>
  <path class="cls-18" d="M878.41,942.52c.06-17.32.07-34.65.22-52,0-3.3-1-6.86,1.52-9.81q11.64,26.64,23.26,53.3c1.19,2.75,3.31,5.26,2.79,8.59C896.93,943.12,887.66,945.29,878.41,942.52Z" transform="translate(0 99.88)"/>
  <path class="cls-23" d="M827.69,807.51c2.66-9.33-4-14.51-9.05-20.44-.47-1.74,0-2.58,1.9-1.89,9.72,6.19,9.72,6.19,12.33-8.68.67,5.38.43,9,1.67,12.09,1.89,4.67,6.23-1.25,9.52,1.85-8.28,3.85-8.62,11.06-8.43,18.79.3,11.83.12,23.68.15,35.52-6.07,1.68-8.23-.59-8-6.86C828.11,827.78,827.75,817.64,827.69,807.51Z" transform="translate(0 99.88)"/>
  <path class="cls-36" d="M878.41,942.52l27.79.1c-3,2.56-6.58,1.28-9.89,1.4-5.23.19-10.65-1.13-10.92,7.35-.17,5.32-5.51,3.69-9,3.93-4.18.29-5.34-2.18-5.24-5.88.06-2.17-.25-4.35-.39-6.52Z" transform="translate(0 99.88)"/>
  <path class="cls-37" d="M1206.34,927.51l-1.9,1.89a9.72,9.72,0,0,1-5.13-5.93C1202.74,923.84,1204.54,925.67,1206.34,927.51Z" transform="translate(0 99.88)"/>
  <path class="cls-37" d="M569.58,833.87l-1.9,1.89c-2.08-1.44-4.6-2.54-4.67-5.88C566,830.19,567.78,832,569.58,833.87Z" transform="translate(0 99.88)"/>
  <path class="cls-37" d="M820.54,785.18l-1.9,1.89a9.72,9.72,0,0,1-5.13-5.93C816.93,781.5,818.74,783.34,820.54,785.18Z" transform="translate(0 99.88)"/>
  <path class="cls-37" d="M1687.66,865.71l-1.9,1.89a9.72,9.72,0,0,1-5.13-5.93C1684.06,862,1685.86,863.87,1687.66,865.71Z" transform="translate(0 99.88)"/>
  <path class="cls-38" d="M1089.92,859.65c0,2.79-.23,5.61,0,8.37.58,5.85-.57,8.86-7.76,9-7.91.12-7.45-4.11-7.3-9.34.17-5.89.33-11.81,0-17.68s.43-8.85,7.71-8.87c7.71,0,7.73,3.86,7.39,9.24C1089.77,853.43,1089.92,856.54,1089.92,859.65Z" transform="translate(0 99.88)"/>
  <path class="cls-39" d="M1105.53,855.81c-4.16.13-7.66.54-7.81-5.36-.15-6.15,3.19-6.4,7.65-6.24,3.78.14,7.34-.5,7.44,5.45S1109.8,856.32,1105.53,855.81Z" transform="translate(0 99.88)"/>
  <path class="cls-40" d="M1099.78,827.51c-.45,3.56-2.7,5.3-6.25,5-3.09-.27-5.11-2.18-5.06-5.42.06-3.65,2.42-5.79,5.83-5.74S1099.78,823.69,1099.78,827.51Z" transform="translate(0 99.88)"/>
  <path class="cls-41" d="M421.48,761c0,1.56,0,3.12,0,4.68,0,9.36-5.76,13.16-14.65,10-2.31-.83-2.63-2.36-2.64-4.25,0-7.17-.08-14.35.11-21.51.13-5,2.85-8.55,7.89-8.78,5.52-.25,8.55,3.42,9.12,8.68.4,3.7.08,7.48.08,11.22Z" transform="translate(0 99.88)"/>
  <path class="cls-42" d="M439.69,744.09c-.61,5.15-3.4,8.51-8.36,8.56s-8.22-2.91-8.21-8.19,2.85-8.17,8.06-8.28S438.87,739.41,439.69,744.09Z" transform="translate(0 99.88)"/>
  <path class="cls-43" d="M1513.17,756.88c-.6,5.33-3.34,8.67-8.26,8.71-4.46,0-7.64-3-7.86-7.58s2.39-7.71,7.06-8.23C1509.42,749.2,1511.79,752.67,1513.17,756.88Z" transform="translate(0 99.88)"/>
  <path class="cls-44" d="M1477.84,773.71c0-3.72-.23-7.45.06-11.15.39-5,3.51-8.18,8.38-8.3s8.29,3,8.56,8c.4,7.41.42,14.87.19,22.29-.24,7.73-6.36,3.74-9.89,4.3s-7.88,1.26-7.45-4.91c.23-3.39,0-6.81,0-10.22Z" transform="translate(0 99.88)"/>
  <path class="cls-37" d="M150.06,895.68l-1.9,1.9c-2.24-1.31-4.24-2.82-5.08-5.93C146.46,892,148.26,893.84,150.06,895.68Z" transform="translate(0 99.88)"/>
  <path class="cls-45" d="M436.67,744c-.45,3.65-2.21,5.53-5.42,5.62s-5.54-1.54-5.51-4.79c0-3.42,2.2-5.9,5.77-5.76A5.16,5.16,0,0,1,436.67,744Z" transform="translate(0 99.88)"/>
  <path class="cls-46" d="M1492.61,773.45c0,2.78.12,5.56,0,8.33-.22,4.06-3,4.93-6.46,4.93-3.64,0-6-1.55-6-5.41-.05-5.55-.2-11.13.29-16.64.3-3.38,1.67-7.19,5.88-7.17,4.51,0,6.14,3.59,6.4,7.63.18,2.77,0,5.55,0,8.33Z" transform="translate(0 99.88)"/>
</svg>